<svg width="1467" height="561" viewBox="0 0 1467 561" fill="none" xmlns="http://www.w3.org/2000/svg">
<path d="M1358.42 -5.3215e-05L1466.52 21.2569L1455.89 75.3392C1455.02 79.7496 1434.27 184.227 1387.78 289.572C1340.93 395.567 1258.21 521.012 1129.01 521.012C1127.2 521.012 1125.46 521.012 1123.66 520.94C1094.81 520.144 1069.65 504.166 1054.61 476.98C1037.33 445.673 1031.9 393.977 1038.34 322.759C937.839 435.478 829.964 507.636 715.943 538.22C483.779 600.4 230.793 529.399 86.4045 361.513L50.4701 319.722L134.052 247.853L169.986 289.644C287.333 426.151 495.275 483.27 687.383 431.791C836.616 391.807 983.173 252.48 1111.37 28.704C1112.02 27.5472 1112.67 26.4627 1113.32 25.3781L1208.61 80.7619C1208.11 81.6295 1207.6 82.4971 1207.09 83.4371C1193.86 107.586 1172.46 178.009 1158.43 257.903C1145.2 333.17 1144.34 383.782 1147.59 408.654C1185.48 399.833 1235.36 361.585 1286.41 246.552C1328.27 152.341 1347.72 55.0945 1347.87 54.0822L1358.5 0.0722096L1358.42 -5.3215e-05Z" fill="#B4A0FF"/>
<path d="M420.079 95.5116L453.482 200.567L400.991 217.269C306.491 247.275 208.955 262.603 110.262 263.037L110.262 533.448L0.000781579 533.448L0.000747902 148.22L58.2043 151.474C163.188 157.33 267.303 144.099 367.587 112.286L420.079 95.5839L420.079 95.5116Z" fill="#B4A0FF"/>
</svg>
