<svg width="1363" height="942" viewBox="0 0 1363 942" fill="none" xmlns="http://www.w3.org/2000/svg">
<path d="M755.48 941.034C751.726 918.925 748.843 892.327 745.424 861.575C733.692 755.116 714.116 576.836 638.763 546.218C593.175 527.727 534.649 576.434 493.553 620.585C446.089 671.57 403.719 736.357 378.244 777.895C371.808 788.816 365.372 799.469 359.07 809.853L270.912 757.327C276.611 747.613 282.845 737.161 289.617 726.106C316.232 680.883 340.5 634.32 348.88 585.68C356.992 538.647 346.869 478.212 306.175 449.202C278.019 429.17 233.772 425.083 190.598 438.55C161.77 447.527 134.15 463.138 108.607 480.49C92.92 493.019 76.7632 504.948 60.1372 516.136L0.00195312 432.989C14.952 421.398 30.7735 409.339 47.6677 397.748C105.457 350.85 155.2 293.634 193.212 229.92C210.04 201.714 238.197 154.48 234.777 128.016C234.174 123.193 229.749 117.297 223.314 112.54C214.129 105.773 201.928 102.289 193.078 103.83L142.53 112.741L124.764 11.7088L175.313 2.7981C211.649 -3.63366 252.342 6.48296 284.119 29.8651C313.617 51.5723 332.254 81.6541 336.612 114.751C344.657 176.523 306.578 240.304 281.438 282.446C272.119 298.056 262.197 313.398 251.672 328.272C294.041 330.148 333.796 342.743 365.774 365.523C412.971 399.088 443.34 454.495 451.854 517.476C531.431 444.847 607.187 422.537 677.512 451.145C739.659 476.403 777.403 534.092 801.671 603.233C814.342 566.719 830.901 532.417 852.89 502.268C878.634 467.024 919.729 417.58 979.663 395.671C1022.9 379.86 1072.78 379.592 1122.93 394.465C1121.45 377.716 1121.72 360.699 1123.87 343.815C1135.13 255.982 1196.07 179.202 1279.07 148.25L1327.13 130.294L1363 226.436L1314.93 244.391C1267.94 261.944 1232 307.101 1225.63 356.88C1219.8 402.505 1238.91 450.676 1273.84 480.557C1277.79 483.572 1281.68 486.587 1285.57 489.602L1224.7 572.213C1219.4 568.461 1214.24 564.508 1209.28 560.422C1179.11 537.307 1147.93 514.796 1115.09 500.66C1093.77 491.545 1052.47 478.279 1014.79 492.081C988.848 501.598 964.445 523.372 935.752 562.766C875.416 645.508 866.566 787.275 859.46 901.104C858.723 913.029 857.985 924.687 857.248 936.01L755.413 941.101L755.48 941.034Z" fill="#FFCE00"/>
</svg>
