<svg width="1512" height="794" viewBox="0 0 1512 794" fill="none" xmlns="http://www.w3.org/2000/svg">
<path d="M1022.63 793.639C967.55 793.639 918.932 780.589 881.638 761.398C843.255 741.631 808.2 712.781 773.528 672.224C706.807 723.848 623.774 748.476 546.498 734.147C473.188 720.585 406.019 676.062 346.207 601.473C308.081 609.213 268.419 609.597 230.037 601.729C137.856 582.985 57.1894 517.736 19.5109 431.568L0 386.917L89.3665 347.895L108.877 392.546C133.634 449.224 188.84 493.875 249.484 506.221C261.126 508.588 273.025 509.803 284.987 509.867C262.47 468.67 241.616 416.407 242.703 359.473C244.43 273.881 302.003 198.524 376.721 184.259C459.114 168.522 546.945 231.789 564.665 319.748C579.058 390.947 550.528 470.526 490.332 527.459C475.683 541.341 459.562 553.495 442.418 563.922C481.12 605.503 521.869 630.451 564.153 638.255C614.242 647.531 670.152 629.556 715.699 593.476C643.476 481.017 597.93 352.501 583.536 219.379C572.597 118.689 600.808 45.8274 662.795 14.1621C728.749 -19.4862 804.873 11.3475 845.942 59.2611C884.644 104.424 898.398 160.974 906.714 210.359C930.063 349.174 916.629 467.263 866.796 561.363C859.312 575.501 850.868 588.998 841.656 601.729C869.931 636.208 897.31 659.749 926.225 674.655C999.854 712.589 1104.25 699.155 1192.21 640.431C1278.38 582.857 1342.48 494.45 1404.47 408.922L1433.06 369.453L1512 426.706L1483.41 466.176C1419.5 554.327 1347.08 654.248 1246.33 721.545C1168.03 773.872 1090.37 793.639 1022.56 793.639H1022.63ZM722.16 97.7712C716.658 97.7712 711.541 98.7947 707.191 101.034C680.451 114.659 675.909 165.644 680.579 208.823C692.286 316.613 726.894 420.885 781.524 514.153C820.418 439.628 830.269 342.841 810.631 226.479C804.553 190.336 795.214 149.715 772.057 122.72C758.751 107.239 738.728 97.7712 722.16 97.7712ZM403.012 279.319C400.326 279.319 397.703 279.575 395.144 280.022C362.135 286.355 340.961 327.168 340.322 361.392C339.426 406.364 363.095 452.166 383.629 485.239C398.151 477.37 411.648 467.775 423.483 456.58C458.922 423.124 476.898 376.937 469.222 339.067C462.633 306.57 431.415 279.319 403.076 279.319H403.012Z" fill="#FF506E"/>
</svg>
