<svg width="1370" height="982" viewBox="0 0 1370 982" fill="none" xmlns="http://www.w3.org/2000/svg">
<path d="M1226.61 9.37915e-05L1369.13 535.509L1278.93 594.261L993.452 365.022C975.989 421.037 957.564 483.563 939.583 544.832C912.352 637.475 884.16 733.226 859.149 806.408L751.485 805.224L661.136 519.599L320.829 982L218.788 943.152L269.032 403.796L61.8431 453.003L0.87039 367.686L228.408 7.02971L324.233 67.4844L170.765 310.709L319.719 275.339L389.201 335.72L350.575 750.541L635.977 362.802L735.576 379.303L805.28 599.515C813.79 570.879 822.373 541.724 830.883 512.866C858.113 420.223 886.306 324.472 911.316 251.216L1000.41 225.318L1215.29 397.876L1117.17 29.1545L1226.69 9.3798e-05L1226.61 9.37915e-05Z" fill="#FFAFFF"/>
</svg>
