<svg width="1512" height="441" viewBox="0 0 1512 441" fill="none" xmlns="http://www.w3.org/2000/svg">
<path d="M679.823 440.13L626.193 347.537C660.779 310.689 707.259 270.704 755.124 230.864C732.797 237.796 710.323 244.728 687.85 251.659C576.723 286.026 465.741 320.393 373.44 349.069L320.466 253.338C345.64 231.813 376.212 187.231 405.836 144.181C408.171 140.751 410.506 137.395 412.841 133.965C381.904 141.773 350.309 150.894 318.058 160.306C234.221 184.604 147.537 209.704 60.3428 213.279L4.52388 215.541L0 103.903L55.819 101.642C129.514 98.6499 205.983 76.4683 286.975 53.0462C370.886 28.6756 457.496 3.50236 544.764 0L583.362 98.2121C561.692 116.818 535.862 152.499 510.178 189.638C557.314 175.045 606.055 159.941 654.796 144.91C767.31 110.106 880.042 75.2279 973.511 46.1145L1030.86 137.687C987.156 184.239 924.551 235.826 864.062 285.735C861.655 287.705 859.247 289.675 856.839 291.718C919.735 281.211 984.164 271.506 1047.57 262.021C1179.86 242.174 1316.67 221.67 1431.88 194.381L1486.24 181.466L1512 290.185L1457.64 303.027C1337.9 331.411 1198.68 352.279 1064.13 372.418C931.848 392.265 795.037 412.768 679.823 440.057V440.13Z" fill="#FFD833"/>
</svg>
